# Blender 4.5.3 LTS
# www.blender.org
mtllib CorredizaDes.mtl
g Corrediza1_Malla
v 0.000000 -3.000000 0.000000
v 0.000000 -0.770000 0.000000
v 0.000000 -3.000000 0.170000
v 0.000000 -0.770000 0.170000
v -0.860000 -3.000000 0.000000
v -0.860000 -0.770000 0.000000
v -0.860000 -3.000000 0.170000
v -0.860000 -0.770000 0.170000
vn 1.0000 -0.0000 -0.0000
vn -0.0000 -0.0000 1.0000
vn -1.0000 -0.0000 -0.0000
vn -0.0000 -0.0000 -1.0000
vn -0.0000 -1.0000 -0.0000
vn -0.0000 1.0000 -0.0000
vt 0.499657 0.994725
vt 0.487762 0.000796
vt 0.499657 0.000796
vt 0.500319 0.997830
vt -0.004925 0.000986
vt 0.500319 0.000986
vt 0.403750 0.603750
vt 0.125000 0.625000
vt 0.125000 0.603750
vt 0.000793 0.005294
vt 0.500319 1.002138
vt 0.000793 1.002138
vt 0.357500 0.603750
vt 0.250000 0.625000
vt 0.250000 0.603750
vt 0.750000 0.603750
vt 0.642500 0.625000
vt 0.642500 0.603750
vt 0.487762 0.994725
vt -0.004925 0.997830
vt 0.403750 0.625000
vt 0.500319 0.005294
vt 0.357500 0.625000
vt 0.750000 0.625000
s 0
g off
g Corrediza1_Corrediza
usemtl Corrediza
f 2/1/1 3/2/1 1/3/1
f 4/4/2 7/5/2 3/6/2
f 8/7/3 5/8/3 7/9/3
f 6/10/4 1/11/4 5/12/4
f 7/13/5 1/14/5 3/15/5
f 4/16/6 6/17/6 8/18/6
f 2/1/1 4/19/1 3/2/1
f 4/4/2 8/20/2 7/5/2
f 8/7/3 6/21/3 5/8/3
f 6/10/4 2/22/4 1/11/4
f 7/13/5 5/23/5 1/14/5
f 4/16/6 2/24/6 6/17/6
