# Blender 4.5.3 LTS
# www.blender.org
mtllib mesa.mtl
g Mesa_Malla
v 13.123451 4.277582 4.098102
v 7.481139 4.277582 4.098102
v 13.381872 4.688202 4.473494
v 13.381872 4.688204 -4.473491
v 13.381872 4.262421 4.473493
v 7.222718 4.688202 4.473494
v 7.222718 4.262421 4.473493
v 7.222718 4.688204 -4.473491
v 7.222718 4.262423 -4.473492
v 13.381872 4.262423 -4.473492
v 7.481139 4.277583 -3.674711
v 13.123451 4.277583 -3.674711
v 13.381872 4.688204 -4.011319
v 7.222718 4.688204 -4.011319
v 7.222718 4.262423 -4.011319
v 13.381872 4.262423 -4.011319
v 13.123451 4.277582 3.645242
v 7.222718 4.688203 3.979151
v 13.381872 4.262422 3.979151
v 7.481139 4.277582 3.645242
v 13.381872 4.688203 3.979151
v 7.222718 4.262422 3.979151
v 7.896939 4.277582 4.098102
v 7.676607 4.688202 4.473494
v 7.676607 4.688204 -4.473491
v 7.676607 4.262423 -4.473492
v 7.676607 4.262421 4.473493
v 7.676607 4.688204 -4.011319
v 7.676607 4.688203 3.979151
v 12.971749 4.688202 4.473494
v 12.971749 4.262423 -4.473492
v 12.971749 4.688204 -4.011319
v 12.971749 4.688203 3.979151
v 12.747744 4.277582 4.098102
v 12.971749 4.688204 -4.473491
v 12.971749 4.262421 4.473493
v 13.123451 4.277583 -4.098100
v 7.481139 4.277583 -4.098100
v 7.222718 4.262423 -4.473492
v 13.381872 4.262423 -4.473492
v 7.481139 4.277583 -3.674711
v 13.123451 4.277583 -3.674711
v 7.222718 4.262423 -4.011319
v 13.381872 4.262423 -4.011319
v 7.896939 4.277583 -4.098100
v 7.676607 4.262423 -4.473492
v 12.747744 4.277583 -4.098100
v 12.971749 4.262423 -4.473492
vn 0.0586 0.9983 -0.0000
vn -0.0000 0.9992 0.0404
vn -0.0000 -1.0000 -0.0000
vn -0.0000 -0.0000 1.0000
vn 1.0000 -0.0000 -0.0000
vn -0.0000 -0.0000 -1.0000
vn -1.0000 -0.0000 -0.0000
vn -0.0586 0.9983 -0.0000
vn -0.0000 0.9992 -0.0404
vt -1.014339 -0.522257
vt -1.070114 -0.522257
vt -1.070115 -0.522257
vt -0.004868 -0.522257
vt -0.079259 -0.522257
vt -0.079259 -0.522257
vt 0.952458 -0.017522
vt 1.004604 0.056869
vt 0.952458 0.056869
vt 1.946857 -0.522257
vt 2.014076 -0.017522
vt 1.946857 -0.017522
vt 0.952458 -0.522257
vt 1.004604 -0.017522
vt -0.004868 -0.017522
vt -0.079259 -0.017522
vt -1.014339 -0.017522
vt -1.070115 -0.017522
vt -2.023810 -0.522257
vt -1.971664 -0.017522
vt -2.023810 -0.017522
vt 0.050908 -0.522257
vt 0.050908 -0.017522
vt 0.050908 0.056870
vt 0.952458 -0.522257
vt 0.050908 -0.522257
vt -0.004868 0.056870
vt -1.971664 -0.522257
vt 0.050908 0.924732
vt -0.004868 0.924732
vt 0.952457 0.924732
vt -0.947121 -0.522257
vt -0.947121 -0.017522
vt 1.004604 -0.522257
vt 1.078995 -0.017522
vt 1.004604 0.924732
vt 1.004604 0.991950
vt 0.952458 0.991950
vt 0.050908 0.991950
vt -0.004868 0.991950
vt 1.078995 -0.522257
vt 2.014076 -0.522257
s 1
g off
g Mesa_Mesa
usemtl Mesa
f 1/1/1 19/2/1 17/3/1
s 2
f 2/4/2 27/5/2 23/6/2
s 3
f 14/7/3 25/8/3 28/9/3
s 4
f 31/10/4 4/11/4 35/12/4
s 5
f 15/13/5 8/14/5 14/7/5
s 6
f 27/5/6 6/15/6 24/16/6
s 7
f 19/2/7 3/17/7 21/18/7
f 10/19/7 13/20/7 4/21/7
s 5
f 22/22/5 14/7/5 18/23/5
s 3
f 18/23/3 28/9/3 29/24/3
s 8
f 11/25/8 22/22/8 20/26/8
f 2/4/8 22/22/8 7/4/8
s 3
f 6/15/3 29/24/3 24/27/3
s 5
f 7/4/5 18/23/5 6/15/5
s 7
f 16/28/7 21/18/7 13/20/7
s 1
f 12/28/1 19/2/1 16/28/1
s 3
f 24/27/3 33/29/3 30/30/3
f 29/24/3 32/31/3 33/29/3
s 6
f 36/32/6 24/16/6 30/33/6
s 4
f 9/34/4 25/35/4 8/14/4
s 3
f 28/9/3 35/36/3 32/31/3
s 2
f 34/32/2 27/5/2 36/32/2
f 1/1/2 36/32/2 5/1/2
s 3
f 32/31/3 4/37/3 13/38/3
s 6
f 5/1/6 30/33/6 3/17/6
s 3
f 33/29/3 13/38/3 21/39/3
f 30/30/3 21/39/3 3/40/3
s 4
f 26/41/4 35/12/4 25/35/4
s 1
f 1/1/1 5/1/1 19/2/1
s 2
f 2/4/2 7/4/2 27/5/2
s 3
f 14/7/3 8/14/3 25/8/3
s 4
f 31/10/4 10/42/4 4/11/4
s 5
f 15/13/5 9/34/5 8/14/5
s 6
f 27/5/6 7/4/6 6/15/6
s 7
f 19/2/7 5/1/7 3/17/7
f 10/19/7 16/28/7 13/20/7
s 5
f 22/22/5 15/13/5 14/7/5
s 3
f 18/23/3 14/7/3 28/9/3
s 8
f 11/25/8 15/13/8 22/22/8
f 2/4/8 20/26/8 22/22/8
s 3
f 6/15/3 18/23/3 29/24/3
s 5
f 7/4/5 22/22/5 18/23/5
s 7
f 16/28/7 19/2/7 21/18/7
s 1
f 12/28/1 17/3/1 19/2/1
s 3
f 24/27/3 29/24/3 33/29/3
f 29/24/3 28/9/3 32/31/3
s 6
f 36/32/6 27/5/6 24/16/6
s 4
f 9/34/4 26/41/4 25/35/4
s 3
f 28/9/3 25/8/3 35/36/3
s 2
f 34/32/2 23/6/2 27/5/2
f 1/1/2 34/32/2 36/32/2
s 3
f 32/31/3 35/36/3 4/37/3
s 6
f 5/1/6 36/32/6 30/33/6
s 3
f 33/29/3 32/31/3 13/38/3
f 30/30/3 33/29/3 21/39/3
s 4
f 26/41/4 31/10/4 35/12/4
s 9
f 37/42/9 48/10/9 47/10/9
s 10
f 38/34/8 43/13/8 41/25/8
s 11
f 37/19/1 44/28/1 40/19/1
s 9
f 38/34/9 46/41/9 39/34/9
f 47/10/9 46/41/9 45/41/9
f 37/42/9 40/42/9 48/10/9
s 10
f 38/34/8 39/34/8 43/13/8
s 11
f 37/19/1 42/28/1 44/28/1
s 9
f 38/34/9 45/41/9 46/41/9
f 47/10/9 48/10/9 46/41/9
g PatasMesa_Malla
v 13.123451 3.722575 -4.098100
v 13.123451 3.722574 4.098102
v 7.481139 3.722575 -4.098100
v 7.481139 3.722574 4.098102
v 13.123451 4.277583 -4.098100
v 13.123451 4.277582 4.098102
v 7.481139 4.277582 4.098102
v 7.481139 4.277583 -4.098100
v 13.123451 4.092907 -4.098100
v 13.123451 3.907741 -4.098100
v 13.123451 3.907739 4.098102
v 13.123451 4.092906 4.098102
v 7.481139 3.907739 4.098102
v 7.481139 4.092906 4.098102
v 7.481139 3.907741 -4.098100
v 7.481139 4.092907 -4.098100
v 13.123451 3.722575 -3.352991
v 13.123451 3.722575 -2.607881
v 13.123451 3.722574 -1.862772
v 13.123451 3.722574 -1.117663
v 13.123451 3.722574 -0.372553
v 13.123451 3.722574 0.372556
v 13.123451 3.722574 1.117665
v 13.123451 3.722574 1.862775
v 13.123451 3.722574 2.607884
v 13.123451 3.722574 3.352993
v 12.610514 3.722574 4.098102
v 12.097577 3.722574 4.098102
v 11.584639 3.722574 4.098102
v 11.071701 3.722574 4.098102
v 10.558764 3.722574 4.098102
v 10.045827 3.722574 4.098102
v 9.532889 3.722574 4.098102
v 9.019952 3.722574 4.098102
v 8.507014 3.722574 4.098102
v 7.994077 3.722574 4.098102
v 7.481139 3.722574 3.352993
v 7.481139 3.722574 2.607884
v 7.481139 3.722574 1.862774
v 7.481139 3.722574 1.117665
v 7.481139 3.722574 0.372556
v 7.481139 3.722574 -0.372554
v 7.481139 3.722574 -1.117663
v 7.481139 3.722574 -1.862772
v 7.481139 3.722575 -2.607881
v 7.481139 3.722575 -3.352991
v 7.994077 3.722575 -4.098100
v 8.507014 3.722575 -4.098100
v 9.019952 3.722575 -4.098100
v 9.532889 3.722575 -4.098100
v 10.045827 3.722575 -4.098100
v 10.558764 3.722575 -4.098100
v 11.071701 3.722575 -4.098100
v 11.584639 3.722575 -4.098100
v 12.097577 3.722575 -4.098100
v 12.610514 3.722575 -4.098100
v 7.720413 3.722574 3.750526
v 7.720413 3.722574 2.917076
v 7.720413 3.722574 2.083626
v 7.720413 3.722574 1.250176
v 7.720413 3.722574 0.416726
v 7.720413 3.722574 -0.416724
v 7.720413 3.722574 -1.250174
v 7.720413 3.722574 -2.083624
v 7.720413 3.722575 -2.917074
v 7.720413 3.722575 -3.750524
v 8.294165 3.722574 3.750526
v 8.294165 3.722575 -3.750524
v 8.867916 3.722574 3.750526
v 8.867916 3.722575 -3.750524
v 9.441668 3.722574 3.750526
v 9.441668 3.722575 -3.750524
v 10.015419 3.722574 3.750526
v 10.015419 3.722575 -3.750524
v 10.589171 3.722574 3.750526
v 10.589171 3.722575 -3.750524
v 11.162923 3.722574 3.750526
v 11.162923 3.722575 -3.750524
v 11.736674 3.722574 3.750526
v 11.736674 3.722575 -3.750524
v 12.310426 3.722574 3.750526
v 12.310426 3.722575 -3.750524
v 12.884178 3.722574 3.750526
v 12.884178 3.722574 2.917076
v 12.884178 3.722574 2.083626
v 12.884178 3.722574 1.250176
v 12.884178 3.722574 0.416726
v 12.884178 3.722574 -0.416724
v 12.884178 3.722574 -1.250174
v 12.884178 3.722574 -2.083624
v 12.884178 3.722575 -2.917074
v 12.884178 3.722575 -3.750524
v 7.481139 4.277583 -3.674711
v 13.123451 4.277583 -3.674711
v 7.481139 4.092907 -3.099618
v 7.481139 3.907741 -3.352310
v 13.123451 4.092907 -3.099618
v 13.123451 3.907741 -3.352310
v 13.123451 4.277582 3.645242
v 13.123451 4.092906 3.105004
v 13.123451 3.907740 3.340269
v 7.481139 4.277582 3.645242
v 7.481139 4.092906 3.105004
v 7.481139 3.907740 3.340269
v 7.896939 4.277583 -4.098100
v 7.896939 4.277582 4.098102
v 8.193036 4.092907 -4.098100
v 7.988046 3.907741 -4.098100
v 7.896939 4.092906 4.098102
v 7.896939 3.907739 4.098102
v 12.747744 4.277583 -4.098100
v 12.413686 4.092907 -4.098100
v 12.611083 3.907741 -4.098100
v 12.747744 4.277582 4.098102
v 12.747744 4.092906 4.098102
v 12.747744 3.907739 4.098102
v 12.762487 0.026362 3.161815
v 12.762487 0.026362 3.573756
v 8.125619 0.026362 3.573659
v 7.842169 0.026362 3.573659
v 7.850992 0.026363 -3.174726
v 7.850992 0.026363 -3.560842
v 12.484074 0.026363 -3.566247
v 12.757319 0.026363 -3.566247
v 12.757319 0.026363 -3.169320
v 12.478906 0.026362 3.573756
v 7.842169 0.026362 3.161911
v 8.116796 0.026363 -3.560842
v 8.116796 0.026363 -3.174726
v 8.125619 0.026362 3.161911
v 12.484074 0.026363 -3.169320
v 12.478906 0.026362 3.161815
vn -1.0000 -0.0000 -0.0000
vn -0.0000 -0.0000 -1.0000
vn 1.0000 -0.0000 -0.0000
vn -0.0000 -0.0000 1.0000
vn -0.0000 -0.1553 -0.9879
vn 0.9940 -0.1090 -0.0000
vn -0.0000 1.0000 -0.0000
vn 0.7805 -0.1151 -0.6145
vn 0.8516 -0.1097 0.5126
vn -0.0000 0.1424 0.9898
vn -0.9951 0.0986 -0.0000
vn -0.0000 0.1438 0.9896
vn -0.9953 0.0972 -0.0000
vn -0.0000 -0.1573 0.9876
vn -0.0000 0.1405 -0.9901
vn -0.9943 -0.1066 -0.0000
vn -0.8516 -0.1099 -0.5126
vn -0.7805 -0.1150 0.6145
vn 0.9950 0.0996 -0.0000
vn 0.9953 0.0972 -0.0000
vn 0.8516 -0.1098 -0.5126
vn 0.7805 -0.1150 0.6145
vn 0.9942 -0.1076 -0.0000
vn -0.8516 -0.1097 0.5126
vn -0.7805 -0.1152 -0.6145
vn -0.0000 -0.1539 -0.9881
vn -0.9940 -0.1090 -0.0000
vt 0.113636 0.375000
vt 0.136364 0.375000
vt 0.236187 0.416667
vt 0.363636 0.375000
vt 0.386364 0.375000
vt 0.481577 0.416667
vt 0.636364 0.375000
vt 0.659091 0.375000
vt 0.737086 0.416667
vt 0.863636 0.375000
vt 0.886364 0.375000
vt 0.983353 0.416667
vt 0.727273 0.147727
vt 0.727273 0.125000
vt 0.983353 0.500000
vt 1.000000 0.458333
vt 1.000000 0.500000
vt 0.983353 0.458333
vt 0.737086 0.500000
vt 0.750000 0.458333
vt 0.750000 0.500000
vt 0.737086 0.458333
vt 0.481577 0.458333
vt 0.500000 0.500000
vt 0.481577 0.500000
vt 0.500000 0.458333
vt 0.236187 0.500000
vt 0.250000 0.458333
vt 0.250000 0.500000
vt 0.236187 0.458333
vt 0.522727 0.147727
vt 0.500000 0.147727
vt 0.727273 0.329545
vt 0.750000 0.352273
vt 0.727273 0.352273
vt 0.727273 0.306818
vt 0.750000 0.329545
vt 0.727273 0.284091
vt 0.750000 0.306818
vt 0.727273 0.261364
vt 0.750000 0.284091
vt 0.750000 0.238636
vt 0.750000 0.261364
vt 0.727273 0.238636
vt 0.750000 0.215909
vt 0.727273 0.215909
vt 0.750000 0.193182
vt 0.727273 0.193182
vt 0.750000 0.170455
vt 0.727273 0.170455
vt 0.750000 0.147727
vt 0.522727 0.375000
vt 0.545455 0.352273
vt 0.545455 0.375000
vt 0.568182 0.352273
vt 0.568182 0.375000
vt 0.590909 0.352273
vt 0.590909 0.375000
vt 0.613636 0.352273
vt 0.613636 0.375000
vt 0.636364 0.352273
vt 0.659091 0.352273
vt 0.681818 0.375000
vt 0.681818 0.352273
vt 0.704545 0.375000
vt 0.704545 0.352273
vt 0.727273 0.375000
vt 0.500000 0.352273
vt 0.522727 0.329545
vt 0.522727 0.352273
vt 0.500000 0.329545
vt 0.522727 0.306818
vt 0.500000 0.306818
vt 0.522727 0.284091
vt 0.500000 0.284091
vt 0.522727 0.261364
vt 0.500000 0.238636
vt 0.500000 0.261364
vt 0.500000 0.215909
vt 0.522727 0.238636
vt 0.500000 0.193182
vt 0.522727 0.215909
vt 0.500000 0.170455
vt 0.522727 0.193182
vt 0.522727 0.170455
vt 0.522727 0.125000
vt 0.545455 0.147727
vt 0.545455 0.125000
vt 0.568182 0.147727
vt 0.568182 0.125000
vt 0.590909 0.147727
vt 0.590909 0.125000
vt 0.613636 0.147727
vt 0.636364 0.125000
vt 0.636364 0.147727
vt 0.659091 0.125000
vt 0.659091 0.147727
vt 0.681818 0.125000
vt 0.681818 0.147727
vt 0.704545 0.125000
vt 0.704545 0.147727
vt 0.000000 0.458333
vt 0.012914 0.416667
vt 0.012914 0.458333
vt 0.012914 0.500000
vt 0.000000 0.500000
vt 0.513813 0.500000
vt 0.513813 0.416667
vt 0.513813 0.458333
vt 0.266647 0.458333
vt 0.266647 0.500000
vt 0.768423 0.416667
vt 0.768423 0.458333
vt 0.768423 0.500000
vt 0.250000 0.416667
vt 0.750000 0.375000
vt 0.500000 0.375000
vt 0.500000 0.125000
vt 0.977273 0.375000
vt 1.000000 0.375000
vt 0.022727 0.375000
vt 0.000000 0.375000
vt 0.772727 0.375000
vt 0.227273 0.375000
vt 0.250000 0.375000
vt 0.477273 0.375000
vt 0.272727 0.375000
vt 0.000000 0.416667
vt 0.045455 0.375000
vt 0.068182 0.375000
vt 0.204545 0.375000
vt 0.090909 0.375000
vt 0.181818 0.375000
vt 0.159091 0.375000
vt 0.266647 0.416667
vt 0.500000 0.416667
vt 0.295455 0.375000
vt 0.318182 0.375000
vt 0.454545 0.375000
vt 0.340909 0.375000
vt 0.431818 0.375000
vt 0.409091 0.375000
vt 0.750000 0.416667
vt 1.000000 0.416667
vt 0.795455 0.375000
vt 0.818182 0.375000
vt 0.954545 0.375000
vt 0.840909 0.375000
vt 0.931818 0.375000
vt 0.909091 0.375000
vt 0.613636 0.125000
vt 0.750000 0.125000
s 1
g off
g PatasMesa_PatasMesa
usemtl PatasMesa
f 69/43/10 70/44/10 149/45/10
s 2
f 79/46/11 80/47/11 158/48/11
s 3
f 90/49/12 91/50/12 144/51/12
s 4
f 99/52/13 100/53/13 161/54/13
s 5
f 140/55/14 173/56/14 179/55/14
s 4
f 159/57/13 57/58/13 53/59/13
f 161/54/13 57/58/13 160/60/13
s 3
f 141/61/12 64/62/12 56/63/12
f 144/51/12 64/62/12 143/64/12
s 2
f 157/65/11 55/66/11 154/67/11
f 158/48/11 62/68/11 157/65/11
s 1
f 147/69/10 60/70/10 54/71/10
f 149/45/10 60/70/10 148/72/10
s 6
f 131/73/15 174/74/15 180/73/15
s 7
f 116/75/16 95/76/16 114/77/16
f 118/78/16 96/79/16 116/75/16
f 120/80/16 97/81/16 118/78/16
f 122/82/16 98/83/16 120/80/16
f 122/82/16 100/84/16 99/85/16
f 124/86/16 101/87/16 100/84/16
f 126/88/16 102/89/16 101/87/16
f 128/90/16 103/91/16 102/89/16
f 130/92/16 104/93/16 103/91/16
s 8
f 140/55/17 171/93/17 104/93/17
s 9
f 85/94/16 106/95/16 86/96/16
f 86/96/16 107/97/16 87/98/16
f 87/98/16 108/99/16 88/100/16
f 88/100/16 109/101/16 89/102/16
f 109/101/16 90/49/16 89/102/16
f 110/103/16 91/50/16 90/49/16
f 111/104/16 92/105/16 91/50/16
f 112/106/16 93/107/16 92/105/16
f 113/108/16 94/109/16 93/107/16
s 10
f 84/110/16 115/111/16 105/112/16
f 83/113/16 117/114/16 115/111/16
f 82/115/16 119/116/16 117/114/16
f 81/117/16 121/118/16 119/116/16
f 79/119/16 121/118/16 80/120/16
f 78/121/16 123/122/16 79/119/16
f 77/123/16 125/124/16 78/121/16
f 76/125/16 127/126/16 77/123/16
f 75/74/16 129/127/16 76/125/16
s 11
f 131/73/18 165/128/18 74/128/18
s 12
f 74/128/16 132/129/16 131/73/16
f 73/130/16 133/131/16 132/129/16
f 72/132/16 134/133/16 133/131/16
f 71/134/16 135/135/16 134/133/16
f 135/135/16 69/136/16 136/137/16
f 136/137/16 68/138/16 137/139/16
f 137/139/16 67/140/16 138/141/16
f 138/141/16 66/142/16 139/143/16
f 139/143/16 65/56/16 140/55/16
s 1
f 57/144/10 146/145/10 145/146/10
f 57/144/10 142/147/10 53/148/10
s 3
f 150/149/12 143/64/12 141/61/12
f 62/68/12 150/149/12 55/66/12
f 62/68/12 152/150/12 151/151/12
s 1
f 145/146/10 147/69/10 142/147/10
s 2
f 163/152/11 154/67/11 162/153/11
s 4
f 64/62/13 156/154/13 155/155/13
f 64/62/13 153/156/13 56/63/13
s 2
f 60/70/11 162/153/11 54/71/11
f 59/157/11 163/152/11 60/70/11
s 4
f 153/156/13 160/60/13 159/57/13
s 13
f 173/56/16 171/93/16 179/55/16
s 14
f 177/77/16 170/158/16 169/109/16
s 15
f 167/110/16 175/94/16 168/159/16
s 16
f 166/160/16 180/73/16 174/74/16
s 17
f 104/161/19 172/162/19 49/162/19
s 18
f 65/163/20 172/164/20 173/163/20
s 19
f 95/165/21 170/158/21 176/165/21
s 20
f 74/166/22 166/167/22 50/167/22
s 21
f 105/112/23 175/94/23 178/112/23
s 22
f 84/168/24 168/159/24 52/159/24
s 23
f 75/169/24 166/167/24 174/169/24
s 24
f 114/77/25 176/76/25 177/77/25
s 25
f 114/77/26 169/109/26 94/109/26
s 26
f 105/112/27 167/110/27 84/110/27
s 27
f 94/109/28 170/158/28 51/158/28
s 28
f 85/94/29 168/159/29 175/94/29
s 1
f 146/145/10 58/170/10 65/163/10
f 58/170/10 49/164/10 65/163/10
f 50/167/10 59/157/10 74/166/10
f 59/157/10 149/45/10 74/166/10
f 149/45/10 146/145/10 69/43/10
f 146/145/10 65/163/10 66/171/10
f 146/145/10 66/171/10 67/172/10
f 73/173/10 74/166/10 149/45/10
f 146/145/10 67/172/10 68/174/10
f 146/145/10 68/174/10 69/43/10
f 72/175/10 73/173/10 149/45/10
f 71/176/10 72/175/10 149/45/10
f 70/44/10 71/176/10 149/45/10
s 2
f 164/177/11 59/157/11 50/167/11
f 164/177/11 50/167/11 75/169/11
f 52/159/11 61/178/11 158/48/11
f 158/48/11 164/177/11 79/46/11
f 164/177/11 75/169/11 76/179/11
f 164/177/11 76/179/11 77/180/11
f 84/168/11 52/159/11 158/48/11
f 83/181/11 84/168/11 158/48/11
f 164/177/11 77/180/11 78/182/11
f 164/177/11 78/182/11 79/46/11
f 82/183/11 83/181/11 158/48/11
f 81/184/11 82/183/11 158/48/11
f 80/47/11 81/184/11 158/48/11
s 3
f 152/150/12 61/178/12 85/94/12
f 61/178/12 52/159/12 85/94/12
f 51/158/12 63/185/12 94/109/12
f 63/185/12 144/51/12 94/109/12
f 144/51/12 152/150/12 90/49/12
f 152/150/12 85/94/12 86/96/12
f 152/150/12 86/96/12 87/98/12
f 93/107/12 94/109/12 144/51/12
f 152/150/12 87/98/12 88/100/12
f 152/150/12 88/100/12 89/102/12
f 92/105/12 93/107/12 144/51/12
f 91/50/12 92/105/12 144/51/12
f 152/150/12 89/102/12 90/49/12
s 4
f 156/154/13 63/185/13 51/158/13
f 156/154/13 51/158/13 95/165/13
f 49/162/13 58/186/13 161/54/13
f 161/54/13 156/154/13 99/52/13
f 156/154/13 95/165/13 96/187/13
f 156/154/13 96/187/13 97/188/13
f 104/161/13 49/162/13 161/54/13
f 103/189/13 104/161/13 161/54/13
f 156/154/13 97/188/13 98/190/13
f 156/154/13 98/190/13 99/52/13
f 102/191/13 103/189/13 161/54/13
f 101/192/13 102/191/13 161/54/13
f 100/53/13 101/192/13 161/54/13
s 29
f 140/55/30 65/56/30 173/56/30
s 4
f 159/57/13 160/60/13 57/58/13
f 161/54/13 58/186/13 57/58/13
s 3
f 141/61/12 143/64/12 64/62/12
f 144/51/12 63/185/12 64/62/12
s 2
f 157/65/11 62/68/11 55/66/11
f 158/48/11 61/178/11 62/68/11
s 1
f 147/69/10 148/72/10 60/70/10
f 149/45/10 59/157/10 60/70/10
s 30
f 131/73/31 75/74/31 174/74/31
s 7
f 116/75/16 96/79/16 95/76/16
f 118/78/16 97/81/16 96/79/16
f 120/80/16 98/83/16 97/81/16
f 122/82/16 99/85/16 98/83/16
f 122/82/16 124/86/16 100/84/16
f 124/86/16 126/88/16 101/87/16
f 126/88/16 128/90/16 102/89/16
f 128/90/16 130/92/16 103/91/16
f 130/92/16 140/55/16 104/93/16
s 31
f 140/55/32 179/55/32 171/93/32
s 9
f 85/94/16 105/112/16 106/95/16
f 86/96/16 106/95/16 107/97/16
f 87/98/16 107/97/16 108/99/16
f 88/100/16 108/99/16 109/101/16
f 109/101/16 110/103/16 90/49/16
f 110/103/16 111/104/16 91/50/16
f 111/104/16 112/106/16 92/105/16
f 112/106/16 113/108/16 93/107/16
f 113/108/16 114/77/16 94/109/16
s 10
f 84/110/16 83/113/16 115/111/16
f 83/113/16 82/115/16 117/114/16
f 82/115/16 81/117/16 119/116/16
f 81/117/16 80/120/16 121/118/16
f 79/119/16 123/122/16 121/118/16
f 78/121/16 125/124/16 123/122/16
f 77/123/16 127/126/16 125/124/16
f 76/125/16 129/127/16 127/126/16
f 75/74/16 131/73/16 129/127/16
s 32
f 131/73/23 180/73/23 165/128/23
s 12
f 74/128/16 73/130/16 132/129/16
f 73/130/16 72/132/16 133/131/16
f 72/132/16 71/134/16 134/133/16
f 71/134/16 70/193/16 135/135/16
f 135/135/16 70/193/16 69/136/16
f 136/137/16 69/136/16 68/138/16
f 137/139/16 68/138/16 67/140/16
f 138/141/16 67/140/16 66/142/16
f 139/143/16 66/142/16 65/56/16
s 1
f 57/144/10 58/170/10 146/145/10
f 57/144/10 145/146/10 142/147/10
s 3
f 150/149/12 151/151/12 143/64/12
f 62/68/12 151/151/12 150/149/12
f 62/68/12 61/178/12 152/150/12
s 1
f 145/146/10 148/72/10 147/69/10
s 2
f 163/152/11 157/65/11 154/67/11
s 4
f 64/62/13 63/185/13 156/154/13
f 64/62/13 155/155/13 153/156/13
s 2
f 60/70/11 163/152/11 162/153/11
f 59/157/11 164/177/11 163/152/11
s 4
f 153/156/13 155/155/13 160/60/13
s 13
f 173/56/16 172/194/16 171/93/16
s 14
f 177/77/16 176/76/16 170/158/16
s 15
f 167/110/16 178/112/16 175/94/16
s 16
f 166/160/16 165/128/16 180/73/16
s 17
f 104/161/19 171/161/19 172/162/19
s 18
f 65/163/20 49/164/20 172/164/20
s 19
f 95/165/21 51/158/21 170/158/21
s 20
f 74/166/22 165/166/22 166/167/22
s 33
f 105/112/33 85/94/33 175/94/33
s 22
f 84/168/24 167/168/24 168/159/24
s 23
f 75/169/24 50/167/24 166/167/24
s 34
f 114/77/34 95/76/34 176/76/34
s 35
f 114/77/35 177/77/35 169/109/35
s 36
f 105/112/36 178/112/36 167/110/36
s 27
f 94/109/28 169/109/28 170/158/28
s 28
f 85/94/29 52/159/29 168/159/29
