# Blender 4.5.4 LTS
# www.blender.org
mtllib PerrySombrero.mtl
g Perry_mesh.001_Malla
v 1.305647 0.564077 9.684286
v 1.395752 0.643711 9.415562
v 0.534736 1.477806 9.398876
v 0.388695 1.336801 9.668198
v 1.597701 -0.150628 9.696499
v 1.713225 -0.065537 9.429749
v -0.014385 1.478253 9.398867
v -0.014385 1.368490 9.667564
v -0.453856 1.483518 9.398762
v -0.367675 1.358536 9.667763
v -1.339011 0.636912 9.415697
v -1.242874 0.537171 9.683561
v -1.617966 -0.150858 9.699408
v -1.741995 -0.065770 9.431627
v 1.574171 -0.688103 9.708702
v 1.679272 -0.735894 9.443157
v 1.393900 -1.114145 9.717224
v 1.456761 -1.204455 9.452530
v 0.986117 -1.389559 9.456234
v 0.926689 -1.294077 9.720823
v 0.320607 -1.566311 9.459768
v 0.254490 -1.460429 9.724152
v -0.014385 -1.590111 9.460245
v -0.014385 -1.489342 9.724730
v -0.327452 -1.471382 9.724371
v -0.367660 -1.574170 9.459927
v -0.908707 -1.264927 9.720242
v -0.982335 -1.389718 9.456236
v -1.294320 -1.199752 9.452436
v -1.220468 -1.085021 9.716642
v -1.589677 -0.688103 9.708702
v -1.708041 -0.736047 9.443159
v 1.187265 0.132830 10.596491
v 0.200345 0.805749 11.018335
v 0.183657 -0.282370 10.584137
v 1.457802 -0.342828 10.358130
v 0.178710 -0.580293 10.564039
v 1.428867 -0.564777 10.344507
v -0.014385 0.849729 11.108644
v -0.014385 -0.275394 10.610214
v -0.186713 0.820274 11.048161
v -0.161983 -0.279790 10.606565
v -0.014385 -0.582084 10.589369
v -0.158648 -0.580617 10.585787
v -0.014385 -0.995829 10.808828
v -0.149053 -0.989382 10.780979
v -1.309184 -0.338838 10.557531
v -1.200527 -0.615950 10.538761
v -1.309184 -0.338838 10.557531
v 0.157665 -0.987197 10.764704
v -0.014385 -1.149982 10.825397
v -0.143662 -1.137072 10.793867
v 0.149660 -1.130707 10.778320
v 1.046935 -0.856945 10.450033
v -0.938469 -0.854846 10.474754
v 1.168311 -1.033036 10.018515
v 1.036493 -1.151054 10.045637
v 0.878844 -0.957713 10.476810
v 0.195978 -1.288534 10.191921
v -0.014385 -1.302764 10.212505
v -0.253727 -1.293580 10.189047
v -0.808501 -1.073075 10.044079
v -0.691404 -1.038578 10.478428
v -1.116956 -0.872102 10.040058
v -1.457638 -0.570988 10.034033
v -1.566690 -0.349132 10.042957
v -0.302877 -1.412115 9.879263
v -0.014385 -1.427149 9.887321
v -1.545665 -0.649064 9.817146
v -1.185963 -1.014049 9.824448
v -1.600874 -0.216950 9.813923
v -0.875305 -1.200977 9.828186
v 0.234986 -1.403131 9.880074
v 0.963290 -1.246403 9.829096
v 1.318704 -1.087108 9.817654
v 1.518002 -0.574852 9.840885
v 1.555447 -0.650352 9.752762
v 1.499940 -0.193398 9.840361
v 1.187265 0.424641 10.023239
v 0.244824 1.252087 10.234814
v -0.014385 1.302682 10.309683
v -0.231192 1.268796 10.259541
v -1.216036 0.132830 10.596491
v -1.216036 0.424641 10.023239
v 1.266186 0.517598 9.797272
v 0.340739 1.311706 9.957634
v -0.014385 1.349697 9.982166
v -0.322181 1.331766 9.965586
v 1.565115 -0.164884 9.744452
v -1.233927 0.499661 9.796787
v -1.566690 -0.349132 10.042957
v -1.600874 -0.216950 9.813923
v -1.708041 -0.736047 9.443159
v -1.589677 -0.688103 9.708702
v 0.534736 1.477806 9.398876
v 1.395752 0.643711 9.415562
v 2.419739 1.550779 9.071333
v 0.851358 2.376970 8.826719
v 2.746654 -0.228183 9.432890
v -0.014385 1.478253 9.398867
v -0.014385 2.498034 8.890642
v -0.453856 1.483518 9.398762
v -0.809005 2.420210 8.847765
v 0.884487 2.472370 8.723917
v 2.505459 1.597716 8.961000
v -0.831220 2.517051 8.745663
v -0.014385 2.597798 8.789967
v 2.851671 -0.258362 9.323286
v 2.684735 -1.017321 9.343096
v 1.713225 -0.065537 9.429749
v 2.787688 -1.063362 9.233822
v 2.140605 -1.661588 9.199608
v 1.679272 -0.735894 9.443157
v -2.442155 1.467806 8.949179
v -2.480511 1.436639 9.088037
v 1.456761 -1.204455 9.452530
v 1.460017 -2.271438 9.018082
v 0.986117 -1.389559 9.456234
v 0.320607 -1.566311 9.459768
v 0.660156 -2.541562 8.815208
v -0.014385 -1.590111 9.460245
v -0.014385 -2.584964 8.816074
v -0.367660 -1.574170 9.459927
v -0.594974 -2.555895 8.815493
v -0.982335 -1.389718 9.456236
v -1.510656 -2.238823 8.903316
v -1.294320 -1.199752 9.452436
v -2.079602 -1.665397 9.009125
v -1.708041 -0.736047 9.443159
v 0.685219 -2.644047 8.707478
v 1.534462 -2.361383 8.910101
v -0.611751 -2.658858 8.707771
v -1.585104 -2.328770 8.795336
v -0.014385 -2.688896 8.708374
v -2.157405 -1.745602 8.900894
v -2.688764 -1.162368 9.191816
v -2.585811 -1.116326 9.301088
v 2.218408 -1.741791 9.091379
v -1.339011 0.636912 9.415697
v -2.895990 -0.069778 9.385735
v -1.741995 -0.065770 9.431627
v -2.585811 -1.116326 9.301088
v -3.001006 -0.099956 9.276131
v -1.708041 -0.736047 9.443159
v -2.688764 -1.162368 9.191816
v -0.006721 0.118355 9.076586
v -1.233927 0.499661 9.796787
v -1.242874 0.537171 9.683561
v -1.617966 -0.150858 9.699408
v -1.600874 -0.216950 9.813923
v -0.367675 1.358536 9.667763
v -0.322181 1.331766 9.965586
v -0.014385 1.368490 9.667564
v -0.014385 1.349697 9.982166
v 0.388695 1.336801 9.668198
v 0.340739 1.311706 9.957634
v 1.305647 0.564077 9.684286
v 1.266186 0.517598 9.797272
v 1.597701 -0.150628 9.696499
v 1.565115 -0.164884 9.744452
v 1.574171 -0.688103 9.708702
v 1.555447 -0.650352 9.752762
v 1.393900 -1.114145 9.717224
v 1.318704 -1.087108 9.817654
v 0.926689 -1.294077 9.720823
v 0.963290 -1.246403 9.829096
v 0.254490 -1.460429 9.724152
v 0.234986 -1.403131 9.880074
v -0.014385 -1.489342 9.724730
v -0.014385 -1.427149 9.887321
v -0.327452 -1.471382 9.724371
v -0.302877 -1.412115 9.879263
v -0.908707 -1.264927 9.720242
v -0.875305 -1.200977 9.828186
v -1.220468 -1.085021 9.716642
v -1.185963 -1.014049 9.824448
v -1.589677 -0.688103 9.708702
v -1.545665 -0.649064 9.817146
v -1.617966 -0.150858 9.699408
v -1.600874 -0.216950 9.813923
vn 0.7414 0.5145 0.4309
vn 0.4550 0.3725 0.8088
vn 0.1822 0.6027 0.7769
vn 0.3253 0.8761 0.3559
vn 0.8550 0.1481 0.4970
vn 0.4658 0.1021 0.8790
vn 0.0305 0.7366 0.6756
vn 0.0262 0.9723 0.2322
vn -0.2041 0.6016 0.7723
vn -0.3589 0.8727 0.3309
vn -0.4283 0.3856 0.8172
vn -0.7295 0.5791 0.3641
vn -0.8973 0.2174 0.3841
vn -0.4579 0.1214 0.8807
vn 0.8623 -0.2038 0.4637
vn 0.5538 -0.1607 0.8170
vn 0.6277 -0.6101 0.4835
vn 0.4104 -0.4748 0.7785
vn 0.2248 -0.6738 0.7039
vn 0.2851 -0.8914 0.3522
vn 0.1033 -0.7355 0.6696
vn 0.1539 -0.9148 0.3734
vn 0.0124 -0.7691 0.6390
vn 0.0234 -0.9340 0.3564
vn -0.1835 -0.9081 0.3763
vn -0.1382 -0.7403 0.6579
vn -0.3693 -0.7824 0.5015
vn -0.2836 -0.6463 0.7084
vn -0.4383 -0.5389 0.7194
vn -0.5392 -0.6663 0.5151
vn -0.8188 -0.3534 0.4524
vn -0.5028 -0.2667 0.8222
vn 0.6318 0.1684 0.7566
vn 0.4833 0.3032 0.8212
vn 0.1445 -0.2303 0.9623
vn 0.7839 0.0241 0.6204
vn 0.1519 0.1941 0.9691
vn 0.7125 -0.2952 0.6365
vn 0.0200 0.3329 0.9428
vn 0.0452 -0.2374 0.9704
vn -0.4231 0.3208 0.8474
vn -0.0246 -0.2253 0.9740
vn 0.0523 0.2121 0.9759
vn -0.0433 0.1914 0.9806
vn 0.0192 0.2627 0.9647
vn -0.2199 0.2156 0.9514
vn -0.6572 -0.0857 0.7488
vn -0.5156 -0.4351 0.7381
vn 0.2493 0.2379 0.9388
vn 0.0163 -0.5471 0.8369
vn -0.3243 -0.5442 0.7737
vn 0.3364 -0.5501 0.7643
vn 0.5005 -0.4444 0.7430
vn -0.5221 -0.6955 0.4937
vn 0.6480 -0.6344 0.4215
vn 0.4904 -0.8060 0.3313
vn 0.3996 -0.7035 0.5877
vn 0.1799 -0.9273 0.3282
vn 0.0151 -0.9543 0.2986
vn -0.2430 -0.9082 0.3407
vn -0.4565 -0.7878 0.4135
vn -0.4291 -0.8217 0.3750
vn -0.5722 -0.7017 0.4245
vn -0.7866 -0.4989 0.3639
vn -0.9673 -0.0832 0.2397
vn -0.1991 -0.9023 0.3823
vn 0.0214 -0.9336 0.3576
vn -0.8094 -0.3681 0.4575
vn -0.5214 -0.6322 0.5731
vn -0.9579 0.1350 0.2535
vn -0.3965 -0.7385 0.5453
vn 0.1585 -0.9207 0.3567
vn 0.3362 -0.8896 0.3093
vn 0.5659 -0.5957 0.5699
vn 0.9270 -0.1680 0.3352
vn 0.8474 -0.1587 0.5067
vn 0.9010 0.1730 0.3979
vn 0.7593 0.5220 0.3884
vn 0.4544 0.8031 0.3854
vn 0.0114 0.9335 0.3583
vn -0.4056 0.8447 0.3492
vn -0.7671 0.2882 0.5732
vn -0.7897 0.5455 0.2808
vn 0.7425 0.4885 0.4583
vn 0.4156 0.8798 0.2310
vn 0.0072 0.9927 0.1202
vn -0.3980 0.8903 0.2211
vn 0.8108 0.1256 0.5717
vn -0.7723 0.5787 0.2619
vn 0.4550 0.3725 0.8089
vn 0.4029 0.4512 0.7963
vn 0.1606 0.6042 0.7805
vn 0.4218 0.0513 0.9053
vn 0.0251 0.5964 0.8023
vn -0.2042 0.6016 0.7723
vn -0.1864 0.6014 0.7769
vn 0.3040 0.8336 -0.4613
vn 0.7757 0.5090 -0.3732
vn -0.2796 0.8497 -0.4469
vn -0.0130 0.9249 -0.3801
vn 0.9678 0.0394 -0.2487
vn 0.3846 -0.2733 0.8817
vn 0.8892 -0.3576 -0.2855
vn 0.2683 -0.4440 0.8549
vn 0.5537 -0.1607 0.8170
vn -0.5942 0.4362 -0.6757
vn -0.7088 0.5175 0.4793
vn 0.1500 -0.5772 0.8027
vn 0.0341 -0.6468 0.7619
vn 0.0047 -0.6383 0.7698
vn -0.0920 -0.6307 0.7706
vn -0.2425 -0.5571 0.7943
vn -0.2788 -0.5159 0.8100
vn 0.2220 -0.8302 -0.5113
vn 0.5214 -0.7604 -0.3871
vn -0.1716 -0.8614 -0.4780
vn -0.5442 -0.7297 -0.4139
vn 0.0066 -0.8756 -0.4830
vn -0.6980 -0.5229 -0.4893
vn -0.8406 -0.4601 -0.2858
vn -0.3145 -0.3831 0.8685
vn 0.6796 -0.6300 -0.3757
vn -0.4748 0.0744 0.8769
vn -0.3146 -0.3830 0.8685
vn -0.9650 -0.0321 -0.2604
vn -0.0190 0.0534 -0.9984
vn -0.3589 0.8727 0.3310
vn 0.0072 0.9927 0.1203
vn 0.3252 0.8761 0.3559
vn 0.4156 0.8797 0.2310
vn 0.8108 0.1255 0.5718
vn 0.8622 -0.2038 0.4637
vn 0.5659 -0.5958 0.5699
vn 0.3362 -0.8895 0.3093
vn 0.0233 -0.9340 0.3564
vn 0.0213 -0.9336 0.3576
vn -0.1836 -0.9081 0.3764
vn -0.9579 0.1350 0.2536
vt 0.873281 0.903860
vt 0.873742 0.907124
vt 0.882361 0.905190
vt 0.882036 0.901356
vt 0.862920 0.903583
vt 0.863311 0.906896
vt 0.888574 0.901223
vt 0.886708 0.898593
vt 0.893574 0.898091
vt 0.890686 0.896007
vt 0.904727 0.886615
vt 0.902003 0.884552
vt 0.906331 0.873947
vt 0.909323 0.875751
vt 0.855880 0.901959
vt 0.854528 0.904796
vt 0.850069 0.899761
vt 0.848052 0.902232
vt 0.842856 0.898135
vt 0.844718 0.895693
vt 0.835721 0.892254
vt 0.837141 0.889292
vt 0.832456 0.889144
vt 0.834480 0.886821
vt 0.831557 0.883790
vt 0.829219 0.885886
vt 0.827011 0.878144
vt 0.824312 0.880060
vt 0.820829 0.874488
vt 0.823473 0.872481
vt 0.820838 0.868518
vt 0.817518 0.867300
vt 0.939851 0.967281
vt 0.950391 0.975547
vt 0.952680 0.963132
vt 0.936178 0.960815
vt 0.952731 0.959321
vt 0.936636 0.958052
vt 0.951585 0.976224
vt 0.955571 0.963733
vt 0.952682 0.976321
vt 0.957101 0.963967
vt 0.955605 0.959438
vt 0.957691 0.959448
vt 0.955211 0.953420
vt 0.956897 0.953380
vt 0.970647 0.971264
vt 0.972487 0.955085
vt 0.975027 0.958143
vt 0.953125 0.953565
vt 0.955061 0.951691
vt 0.956380 0.951527
vt 0.953370 0.951687
vt 0.940502 0.954521
vt 0.970261 0.951943
vt 0.936556 0.949166
vt 0.938685 0.947333
vt 0.942007 0.952344
vt 0.951151 0.943467
vt 0.954407 0.943144
vt 0.958112 0.942827
vt 0.971362 0.944535
vt 0.967487 0.949814
vt 0.973766 0.946669
vt 0.979617 0.950300
vt 0.982182 0.952528
vt 0.959242 0.938228
vt 0.953930 0.938476
vt 0.983187 0.950250
vt 0.975914 0.942541
vt 0.985861 0.951904
vt 0.973626 0.940135
vt 0.948849 0.939298
vt 0.937227 0.943185
vt 0.932635 0.946904
vt 0.929810 0.956127
vt 0.927980 0.954649
vt 0.928703 0.964523
vt 0.933569 0.972418
vt 0.946572 0.982457
vt 0.949561 0.982996
vt 0.951871 0.983915
vt 0.966480 0.975251
vt 0.968117 0.983346
vt 0.929401 0.974327
vt 0.942607 0.985779
vt 0.948037 0.988130
vt 0.953040 0.988905
vt 0.926806 0.963668
vt 0.968858 0.986680
vt 0.977022 0.976338
vt 0.978794 0.979803
vt 0.910608 0.867178
vt 0.907565 0.869115
vt 0.864346 0.985794
vt 0.875552 0.986885
vt 0.875490 0.977251
vt 0.864782 0.975625
vt 0.887192 0.979354
vt 0.857723 0.985003
vt 0.860452 0.974714
vt 0.851246 0.982071
vt 0.855058 0.972840
vt 0.865417 0.974367
vt 0.875627 0.976286
vt 0.855589 0.971659
vt 0.860852 0.973324
vt 0.887159 0.977510
vt 0.892119 0.978527
vt 0.886680 0.987218
vt 0.892138 0.976843
vt 0.897773 0.976307
vt 0.895516 0.986038
vt 0.843181 0.967103
vt 0.842330 0.968040
vt 0.902504 0.983859
vt 0.903604 0.972686
vt 0.908923 0.981749
vt 0.917430 0.977069
vt 0.908435 0.968374
vt 0.920965 0.974145
vt 0.912343 0.964846
vt 0.924318 0.970652
vt 0.915568 0.961259
vt 0.931431 0.960581
vt 0.920926 0.954856
vt 0.933145 0.959323
vt 0.925385 0.948409
vt 0.939242 0.951895
vt 0.907496 0.967227
vt 0.902757 0.971412
vt 0.914397 0.960296
vt 0.919722 0.953878
vt 0.911197 0.963666
vt 0.923766 0.947641
vt 0.928643 0.940000
vt 0.930320 0.941058
vt 0.897225 0.974731
vt 0.838431 0.979537
vt 0.830678 0.965460
vt 0.828983 0.976103
vt 0.821465 0.961457
vt 0.830880 0.964082
vt 0.822753 0.974254
vt 0.822069 0.959514
vt 0.875854 0.969293
vt 0.967522 0.912129
vt 0.967803 0.913392
vt 0.975719 0.908232
vt 0.975048 0.906920
vt 0.955984 0.915704
vt 0.955541 0.913814
vt 0.951174 0.915172
vt 0.951751 0.913227
vt 0.946137 0.912705
vt 0.947639 0.911446
vt 0.936057 0.903495
vt 0.937636 0.902772
vt 0.934952 0.894375
vt 0.935670 0.894699
vt 0.935866 0.887307
vt 0.936559 0.887867
vt 0.938600 0.881144
vt 0.940085 0.882001
vt 0.943011 0.877613
vt 0.943563 0.879184
vt 0.951495 0.874661
vt 0.952366 0.876240
vt 0.956035 0.873849
vt 0.956215 0.875617
vt 0.960666 0.873688
vt 0.960238 0.875429
vt 0.971991 0.875207
vt 0.971133 0.876873
vt 0.973679 0.877133
vt 0.972866 0.878696
vt 0.979728 0.884517
vt 0.978376 0.884535
vt 0.981794 0.885552
vt 0.980400 0.885788
s 1
g Hat
g Perry_mesh.001_Material.007
usemtl Material.007
f 1/1/1 2/2/2 3/3/3
f 1/1/1 3/3/3 4/4/4
f 5/5/5 2/2/2 1/1/1
f 5/5/5 6/6/6 2/2/2
f 4/4/4 3/3/3 7/7/7
f 4/4/4 7/7/7 8/8/8
f 8/8/8 7/7/7 9/9/9
f 8/8/8 9/9/9 10/10/10
f 10/10/10 9/9/9 11/11/11
f 10/10/10 11/11/11 12/12/12
f 13/13/13 12/12/12 11/11/11
f 13/13/13 11/11/11 14/14/14
f 15/15/15 6/6/6 5/5/5
f 15/15/15 16/16/16 6/6/6
f 17/17/17 16/16/16 15/15/15
f 17/17/17 18/18/18 16/16/16
f 17/17/17 19/19/19 18/18/18
f 17/17/17 20/20/20 19/19/19
f 21/21/21 19/19/19 20/20/20
f 21/21/21 20/20/20 22/22/22
f 23/23/23 21/21/21 22/22/22
f 23/23/23 22/22/22 24/24/24
f 25/25/25 23/23/23 24/24/24
f 25/25/25 26/26/26 23/23/23
f 27/27/27 26/26/26 25/25/25
f 27/27/27 28/28/28 26/26/26
f 29/29/29 28/28/28 27/27/27
f 29/29/29 27/27/27 30/30/30
f 31/31/31 29/29/29 30/30/30
f 31/31/31 32/32/32 29/29/29
s 2
f 33/33/33 34/34/34 35/35/35
f 33/33/33 35/35/35 36/36/36
f 37/37/37 36/36/36 35/35/35
f 37/37/37 38/38/38 36/36/36
f 35/35/35 34/34/34 39/39/39
f 35/35/35 39/39/39 40/40/40
f 40/40/40 39/39/39 41/41/41
f 40/40/40 41/41/41 42/42/42
f 42/42/42 43/43/43 40/40/40
f 43/43/43 37/37/37 35/35/35
f 43/43/43 35/35/35 40/40/40
f 42/42/42 44/44/44 43/43/43
f 45/45/45 43/43/43 44/44/44
f 45/45/45 37/37/37 43/43/43
f 45/45/45 44/44/44 46/46/46
f 41/41/41 47/47/47 42/42/42
f 48/48/48 44/44/44 42/42/42
f 48/48/48 42/42/42 49/49/47
f 46/46/46 44/44/44 48/48/48
f 45/45/45 50/50/49 37/37/37
f 38/38/38 37/37/37 50/50/49
f 51/51/50 50/50/49 45/45/45
f 52/52/51 51/51/50 45/45/45
f 52/52/51 45/45/45 46/46/46
f 51/51/50 53/53/52 50/50/49
f 54/54/53 50/50/49 53/53/52
f 38/38/38 50/50/49 54/54/53
f 52/52/51 46/46/46 55/55/54
f 38/38/38 54/54/53 56/56/55
f 54/54/53 57/57/56 56/56/55
f 54/54/53 58/58/57 57/57/56
f 58/58/57 59/59/58 57/57/56
f 58/58/57 53/53/52 59/59/58
f 59/59/58 53/53/52 51/51/50
f 59/59/58 51/51/50 60/60/59
f 51/51/50 61/61/60 60/60/59
f 51/51/50 52/52/51 61/61/60
f 52/52/51 62/62/61 61/61/60
f 52/52/51 63/63/62 62/62/61
f 54/54/53 53/53/52 58/58/57
f 63/63/62 64/64/63 62/62/61
f 63/63/62 55/55/54 64/64/63
f 55/55/54 65/65/64 64/64/63
f 55/55/54 48/48/48 65/65/64
f 48/48/48 66/66/65 65/65/64
f 48/48/48 49/49/47 66/66/65
f 60/60/59 61/61/60 67/67/66
f 60/60/59 67/67/66 68/68/67
f 64/64/63 65/65/64 69/69/68
f 64/64/63 69/69/68 70/70/69
f 62/62/61 64/64/63 70/70/69
f 65/65/64 66/66/65 71/71/70
f 65/65/64 71/71/70 69/69/68
f 61/61/60 62/62/61 72/72/71
f 62/62/61 70/70/69 72/72/71
f 61/61/60 72/72/71 67/67/66
f 52/52/51 55/55/54 63/63/62
f 46/46/46 48/48/48 55/55/54
f 59/59/58 60/60/59 68/68/67
f 59/59/58 68/68/67 73/73/72
f 57/57/56 59/59/58 73/73/72
f 57/57/56 73/73/72 74/74/73
f 56/56/55 57/57/56 74/74/73
f 56/56/55 74/74/73 75/75/74
f 76/76/75 56/56/55 75/75/74
f 38/38/38 56/56/55 76/76/75
f 76/76/75 75/75/74 77/77/76
f 78/78/77 76/76/75 77/77/76
f 36/36/36 76/76/75 78/78/77
f 33/33/33 36/36/36 78/78/77
f 33/33/33 78/78/77 79/79/78
f 34/34/34 33/33/33 79/79/78
f 34/34/34 79/79/78 80/80/79
f 36/36/36 38/38/38 76/76/75
f 39/39/39 34/34/34 80/80/79
f 39/39/39 80/80/79 81/81/80
f 41/41/41 39/39/39 81/81/80
f 41/41/41 81/81/80 82/82/81
f 83/83/82 41/41/41 82/82/81
f 83/83/82 82/82/81 84/84/83
f 80/80/79 79/79/78 85/85/84
f 80/80/79 85/85/84 86/86/85
f 81/81/80 80/80/79 86/86/85
f 82/82/81 81/81/80 87/87/86
f 81/81/80 86/86/85 87/87/86
f 82/82/81 87/87/86 88/88/87
f 79/79/78 89/89/88 85/85/84
f 79/79/78 78/78/77 89/89/88
f 78/78/77 77/77/76 89/89/88
f 90/90/89 84/84/83 82/82/81
f 90/90/89 82/82/81 88/88/87
f 91/91/65 84/84/83 90/90/89
f 47/47/47 84/84/83 91/91/65
f 91/91/65 90/90/89 92/92/70
f 47/47/47 83/83/82 84/84/83
s 1
f 13/13/13 14/14/14 93/93/32
f 13/13/13 93/93/32 94/94/31
s 2
f 41/41/41 83/83/82 47/47/47
s 3
f 95/95/3 96/96/90 97/97/91
f 95/95/3 97/97/91 98/98/92
f 96/96/90 99/99/93 97/97/91
f 100/100/7 95/95/3 98/98/92
f 100/100/7 98/98/92 101/101/94
f 102/102/95 100/100/7 101/101/94
f 102/102/95 101/101/94 103/103/96
f 97/97/91 104/104/97 98/98/92
f 97/97/91 105/105/98 104/104/97
f 99/99/93 105/105/98 97/97/91
f 101/101/94 106/106/99 103/103/96
f 101/101/94 107/107/100 106/106/99
f 98/98/92 104/104/97 107/107/100
f 98/98/92 107/107/100 101/101/94
f 99/99/93 108/108/101 105/105/98
f 109/109/102 108/108/101 99/99/93
f 110/110/6 109/109/102 99/99/93
f 96/96/90 110/110/6 99/99/93
f 109/109/102 111/111/103 108/108/101
f 112/112/104 111/111/103 109/109/102
f 113/113/105 112/112/104 109/109/102
f 110/110/6 113/113/105 109/109/102
f 103/103/96 106/106/99 114/114/106
f 115/115/107 102/102/95 103/103/96
f 113/113/105 116/116/18 112/112/104
f 116/116/18 117/117/108 112/112/104
f 116/116/18 118/118/19 117/117/108
f 119/119/21 117/117/108 118/118/19
f 119/119/21 120/120/109 117/117/108
f 121/121/23 120/120/109 119/119/21
f 121/121/23 122/122/110 120/120/109
f 123/123/26 122/122/110 121/121/23
f 123/123/26 124/124/111 122/122/110
f 125/125/28 124/124/111 123/123/26
f 125/125/28 126/126/112 124/124/111
f 127/127/29 126/126/112 125/125/28
f 127/127/29 128/128/113 126/126/112
f 129/129/32 128/128/113 127/127/29
f 117/117/108 120/120/109 130/130/114
f 117/117/108 130/130/114 131/131/115
f 122/122/110 124/124/111 132/132/116
f 124/124/111 126/126/112 133/133/117
f 124/124/111 133/133/117 132/132/116
f 120/120/109 122/122/110 134/134/118
f 122/122/110 132/132/116 134/134/118
f 126/126/112 128/128/113 135/135/119
f 128/128/113 136/136/120 135/135/119
f 128/128/113 137/137/121 136/136/120
f 129/129/32 137/137/121 128/128/113
f 126/126/112 135/135/119 133/133/117
f 120/120/109 134/134/118 130/130/114
f 117/117/108 131/131/115 138/138/122
f 117/117/108 138/138/122 112/112/104
f 112/112/104 138/138/122 111/111/103
f 139/139/11 115/115/107 140/140/123
f 115/115/107 139/139/11 102/102/95
f 139/139/11 140/140/123 141/141/14
f 141/141/14 140/140/123 142/142/124
f 142/142/124 140/140/123 143/143/125
f 141/141/14 142/142/124 144/144/32
f 140/140/123 114/114/106 143/143/125
f 142/142/124 143/143/125 145/145/120
f 103/103/96 114/114/106 115/115/107
f 140/140/123 115/115/107 114/114/106
f 105/105/98 146/146/126 104/104/97
f 108/108/101 146/146/126 105/105/98
f 111/111/103 146/146/126 108/108/101
f 138/138/122 146/146/126 111/111/103
f 104/104/97 146/146/126 107/107/100
f 107/107/100 146/146/126 106/106/99
f 131/131/115 146/146/126 138/138/122
f 131/131/115 130/130/114 146/146/126
f 106/106/99 146/146/126 114/114/106
f 143/143/125 114/114/106 146/146/126
f 145/145/120 143/143/125 146/146/126
f 130/130/114 134/134/118 146/146/126
f 134/134/118 132/132/116 146/146/126
f 132/132/116 133/133/117 146/146/126
f 135/135/119 136/136/120 146/146/126
f 133/133/117 135/135/119 146/146/126
s 4
f 147/147/89 148/148/12 149/149/13
f 147/147/89 149/149/13 150/150/70
f 147/147/89 151/151/127 148/148/12
f 147/147/89 152/152/87 151/151/127
f 152/152/87 153/153/8 151/151/127
f 152/152/87 154/154/128 153/153/8
f 154/154/128 155/155/129 153/153/8
f 154/154/128 156/156/130 155/155/129
f 156/156/130 157/157/1 155/155/129
f 156/156/130 158/158/84 157/157/1
f 158/158/84 159/159/5 157/157/1
f 158/158/84 160/160/131 159/159/5
f 160/160/131 161/161/132 159/159/5
f 160/160/131 162/162/76 161/161/132
f 162/162/76 163/163/17 161/161/132
f 162/162/76 164/164/133 163/163/17
f 164/164/133 165/165/20 163/163/17
f 164/164/133 166/166/134 165/165/20
f 166/166/134 167/167/22 165/165/20
f 166/166/134 168/168/72 167/167/22
f 168/168/72 169/169/135 167/167/22
f 168/168/72 170/170/136 169/169/135
f 170/170/136 171/171/137 169/169/135
f 170/170/136 172/172/66 171/171/137
f 172/172/66 173/173/27 171/171/137
f 172/172/66 174/174/71 173/173/27
f 174/174/71 175/175/30 173/173/27
f 174/174/71 176/176/69 175/175/30
f 176/176/69 177/177/31 175/175/30
f 176/176/69 178/178/68 177/177/31
f 178/178/68 179/179/13 177/177/31
f 178/178/68 180/180/138 179/179/13
