# Blender 4.5.4 LTS
# www.blender.org
mtllib PerryCola.mtl
g Perry_mesh.006_Malla
v -0.014385 -7.030897 3.100210
v -0.014385 -6.820434 3.525161
v -0.985247 -6.570608 3.316161
v -1.068824 -6.651124 3.168561
v -1.583453 -5.821314 3.431749
v -0.014385 -1.278521 3.083946
v -0.686545 -1.177656 2.983973
v -0.819251 -1.467434 3.022129
v -0.014385 -1.567729 3.135736
v 0.790496 -1.467430 3.022249
v 0.657792 -1.177646 2.984114
v -0.987898 -2.450821 3.224138
v -0.014385 -2.452637 3.383236
v -1.280819 -3.653372 3.364366
v 0.959128 -2.450821 3.224138
v 1.252051 -3.653372 3.364366
v -0.014385 -3.654199 3.674309
v -1.526001 -4.552223 3.431749
v -0.014385 -4.552223 3.865334
v -1.583453 -5.821314 3.431749
v -0.014385 -5.897568 3.876083
v -0.985247 -6.570608 3.316161
v -0.014385 -6.820434 3.525161
v 1.554683 -5.821314 3.431749
v 1.497232 -4.552223 3.431749
v 0.956478 -6.570608 3.316161
v -0.686545 -1.177656 2.983973
v -0.660384 -1.054887 2.759108
v -0.786415 -1.343706 2.787789
v -0.819251 -1.467434 3.022129
v -1.032009 -2.357637 2.945157
v -0.987898 -2.450821 3.224138
v -1.376751 -3.525519 3.091538
v -1.280819 -3.653372 3.364366
v -1.593672 -4.559951 3.220102
v -1.526001 -4.552223 3.431749
v -1.596367 -5.821478 3.211043
v -0.559225 -1.051189 2.505100
v -0.014385 -1.127338 2.477351
v -0.014385 -1.421333 2.507122
v -0.626786 -1.329895 2.548656
v 0.530426 -1.051203 2.505180
v 0.597991 -1.329908 2.548726
v 1.001437 -2.372885 2.808742
v -0.014385 -2.450919 2.668483
v -0.014385 -3.611669 2.880992
v -1.030207 -2.372885 2.808742
v -1.344268 -3.527942 2.980093
v -0.014385 -4.552224 2.988808
v -1.518656 -4.552224 3.102651
v -0.014385 -5.893857 2.978060
v -1.522391 -5.820438 3.072831
v -0.014385 -6.709443 2.916214
v 1.315498 -3.527942 2.980093
v 1.489886 -4.552224 3.102651
v 1.493622 -5.820438 3.072831
v -1.044933 -6.569489 3.034337
v 1.016163 -6.569489 3.034337
v -0.626786 -1.329895 2.548656
v -0.786415 -1.343706 2.787789
v -0.660384 -1.054887 2.759108
v -1.032009 -2.357637 2.945157
v -0.559225 -1.051189 2.505100
v -1.030207 -2.372885 2.808742
v -1.376751 -3.525519 3.091538
v -1.344268 -3.527942 2.980093
v -1.593672 -4.559951 3.220102
v -1.518656 -4.552224 3.102651
v -1.596367 -5.821478 3.211043
v -1.522391 -5.820438 3.072831
v -1.068824 -6.651124 3.168561
v -1.044933 -6.569489 3.034337
v -0.014385 -6.709443 2.916214
v -0.014385 -7.030897 3.100210
v -0.014385 -7.030897 3.100210
v 1.040055 -6.651124 3.168561
v 0.956478 -6.570608 3.316161
v -0.014385 -6.820434 3.525161
v 1.554683 -5.821314 3.431749
v 0.657792 -1.177646 2.984114
v 0.790496 -1.467430 3.022249
v 0.757627 -1.343718 2.787919
v 0.631591 -1.054895 2.759262
v 0.959128 -2.450821 3.224138
v 1.003238 -2.357637 2.945157
v 1.347981 -3.525519 3.091538
v 1.252051 -3.653372 3.364366
v 1.564901 -4.559951 3.220102
v 1.497232 -4.552223 3.431749
v 1.567597 -5.821478 3.211043
v 0.757627 -1.343718 2.787919
v 0.597991 -1.329908 2.548726
v 0.530426 -1.051203 2.505180
v 1.003238 -2.357637 2.945157
v 0.631591 -1.054895 2.759262
v 1.347981 -3.525519 3.091538
v 1.001437 -2.372885 2.808742
v 1.315498 -3.527942 2.980093
v 1.564901 -4.559951 3.220102
v 1.489886 -4.552224 3.102651
v 1.567597 -5.821478 3.211043
v 1.493622 -5.820438 3.072831
v 1.040055 -6.651124 3.168561
v 1.016163 -6.569489 3.034337
v -0.014385 -6.709443 2.916214
v -0.014385 -7.030897 3.100210
vn -0.0000 -0.9628 -0.2702
vn -0.0000 -0.6789 0.7342
vn -0.3652 -0.5785 0.7294
vn -0.5627 -0.8266 0.0129
vn -0.7768 -0.2368 0.5836
vn -0.0001 0.1779 0.9840
vn -0.6782 0.3839 0.6266
vn -0.7177 0.3191 0.6189
vn -0.0084 0.2205 0.9754
vn 0.7465 0.2995 0.5942
vn 0.6782 0.3839 0.6266
vn -0.6229 0.2702 0.7342
vn -0.0054 0.2264 0.9740
vn -0.6029 0.2267 0.7649
vn 0.6283 0.2730 0.7285
vn 0.6029 0.2267 0.7649
vn -0.0000 0.2098 0.9777
vn -0.7029 0.1291 0.6995
vn -0.0000 0.1078 0.9942
vn -0.7767 -0.2368 0.5836
vn -0.0000 -0.1791 0.9838
vn 0.7767 -0.2368 0.5836
vn 0.7029 0.1291 0.6995
vn 0.3652 -0.5785 0.7294
vn -0.9172 0.3053 -0.2559
vn -0.9238 0.2917 -0.2479
vn -0.7177 0.3192 0.6189
vn -0.9590 0.2757 0.0664
vn -0.9689 0.2363 0.0737
vn -0.9900 0.0987 -0.1010
vn -0.7029 0.1290 0.6995
vn -0.9494 -0.2476 -0.1934
vn -0.5349 0.0047 -0.8449
vn 0.0001 -0.1007 -0.9949
vn 0.0084 -0.1424 -0.9898
vn -0.5335 0.0200 -0.8456
vn 0.4959 0.0440 -0.8672
vn 0.5062 -0.0339 -0.8617
vn 0.7314 0.1138 -0.6724
vn 0.0043 -0.1731 -0.9849
vn -0.0000 -0.1314 -0.9913
vn -0.7347 0.1100 -0.6694
vn -0.6344 0.0487 -0.7715
vn -0.0000 -0.0516 -0.9987
vn -0.5401 0.0058 -0.8416
vn -0.0000 0.0463 -0.9989
vn -0.5854 -0.1547 -0.7959
vn -0.0000 -0.2702 -0.9628
vn 0.6344 0.0487 -0.7715
vn 0.5401 0.0058 -0.8416
vn 0.5854 -0.1547 -0.7959
vn -0.4002 -0.4707 -0.7863
vn 0.4003 -0.4706 -0.7863
vn -0.5335 0.0199 -0.8456
vn -0.9589 0.2757 0.0664
vn -0.9900 0.0986 -0.1010
vn 0.5627 -0.8266 0.0129
vn 0.7768 -0.2368 0.5836
vn 0.9354 0.2692 -0.2290
vn 0.9072 0.3774 -0.1860
vn 0.9530 0.2924 0.0800
vn 0.9689 0.2363 0.0737
vn 0.9900 0.0987 -0.1010
vn 0.9494 -0.2476 -0.1934
vn 0.9354 0.2692 -0.2291
vn 0.5063 -0.0339 -0.8617
vn 0.9529 0.2924 0.0800
vn 0.9689 0.2363 0.0736
vn 0.6344 0.0486 -0.7715
vn 0.9900 0.0986 -0.1010
vn 0.4002 -0.4706 -0.7863
vt 0.052167 0.967576
vt 0.062850 0.972998
vt 0.074350 0.946883
vt 0.071687 0.944325
vt 0.096022 0.938281
vt 0.048254 0.784548
vt 0.034971 0.886342
vt 0.061479 0.890536
vt 0.074687 0.784548
vt 0.061480 0.678561
vt 0.034971 0.682756
vt 0.190974 0.912741
vt 0.191213 0.784548
vt 0.351627 0.951314
vt 0.190973 0.656355
vt 0.351627 0.617783
vt 0.351736 0.784548
vt 0.486097 0.983599
vt 0.486096 0.784548
vt 0.639405 0.991164
vt 0.649446 0.784548
vt 0.733470 0.912392
vt 0.766367 0.784548
vt 0.639404 0.577932
vt 0.486097 0.585497
vt 0.733470 0.656705
vt 0.221420 0.943232
vt 0.226331 0.939366
vt 0.220913 0.939043
vt 0.216002 0.943206
vt 0.191188 0.937268
vt 0.187315 0.943068
vt 0.156554 0.933787
vt 0.152375 0.939783
vt 0.124561 0.932712
vt 0.124633 0.936910
vt 0.094734 0.934333
vt 0.041063 0.714395
vt 0.051060 0.785131
vt 0.076005 0.785131
vt 0.063999 0.705622
vt 0.041063 0.855868
vt 0.063999 0.864641
vt 0.181597 0.917023
vt 0.191843 0.785131
vt 0.346562 0.785131
vt 0.181597 0.653241
vt 0.335567 0.612463
vt 0.486133 0.785131
vt 0.486133 0.589822
vt 0.648540 0.785131
vt 0.638899 0.589337
vt 0.751049 0.785131
vt 0.335567 0.957800
vt 0.486133 0.980441
vt 0.638899 0.980926
vt 0.732672 0.651328
vt 0.732672 0.918934
vt 0.088622 0.935126
vt 0.091652 0.930069
vt 0.087798 0.929519
vt 0.119056 0.932856
vt 0.084758 0.935054
vt 0.118500 0.935551
vt 0.152560 0.937009
vt 0.151273 0.939390
vt 0.184143 0.943532
vt 0.182347 0.945662
vt 0.213845 0.956367
vt 0.213152 0.959055
vt 0.229788 0.975558
vt 0.227208 0.976569
vt 0.225372 0.988963
vt 0.233713 0.990611
vt 0.253852 0.986014
vt 0.234609 0.962872
vt 0.232038 0.965505
vt 0.243290 0.991818
vt 0.210355 0.956402
vt 0.084890 0.959149
vt 0.090308 0.959219
vt 0.085498 0.954970
vt 0.081217 0.955198
vt 0.118992 0.959585
vt 0.115249 0.953718
vt 0.149940 0.950846
vt 0.153985 0.956913
vt 0.181946 0.950332
vt 0.181773 0.954529
vt 0.211741 0.952476
vt 0.203630 0.937238
vt 0.203893 0.943365
vt 0.207673 0.945103
vt 0.176982 0.930170
vt 0.207574 0.938526
vt 0.144234 0.921964
vt 0.175871 0.932761
vt 0.143918 0.924526
vt 0.112424 0.916661
vt 0.112672 0.919400
vt 0.080174 0.917711
vt 0.080717 0.920200
vt 0.057335 0.931137
vt 0.060379 0.932381
vt 0.053492 0.959530
vt 0.045466 0.959326
s 1
g Tail 3
g Perry_mesh.006_Material.006
usemtl Material.006
f 1/1/1 2/2/2 3/3/3
f 1/1/1 3/3/3 4/4/4
g mmd_edge_scale
f 5/5/5 4/4/4 3/3/3
s 2
g Tail 1
f 6/6/6 7/7/7 8/8/8
f 6/6/6 8/8/8 9/9/9
f 6/6/6 9/9/9 10/10/10
f 6/6/6 10/10/10 11/11/11
g mmd_edge_scale
f 9/9/9 8/8/8 12/12/12
f 9/9/9 12/12/12 13/13/13
f 10/10/10 9/9/9 13/13/13
f 13/13/13 12/12/12 14/14/14
f 10/10/10 13/13/13 15/15/15
f 13/13/13 16/16/16 15/15/15
f 13/13/13 14/14/14 17/17/17
f 17/17/17 14/14/14 18/18/18
f 17/17/17 18/18/18 19/19/19
f 19/19/19 18/18/18 20/20/20
f 19/19/19 20/20/20 21/21/21
f 21/21/21 20/20/20 22/22/3
f 21/21/21 22/22/3 23/23/2
f 13/13/13 17/17/17 16/16/16
f 19/19/19 21/21/21 24/24/22
f 19/19/19 24/24/22 25/25/23
f 17/17/17 19/19/19 25/25/23
f 17/17/17 25/25/23 16/16/16
f 21/21/21 23/23/2 26/26/24
f 21/21/21 26/26/24 24/24/22
s 1
g Tail 1
f 27/27/7 28/28/25 29/29/26
f 27/27/7 29/29/26 30/30/27
g mmd_edge_scale
f 30/30/27 29/29/26 31/31/28
f 30/30/27 31/31/28 32/32/12
f 32/32/12 31/31/28 33/33/29
f 32/32/12 33/33/29 34/34/14
f 34/34/14 33/33/29 35/35/30
f 36/36/31 35/35/30 37/37/32
f 34/34/14 35/35/30 36/36/31
f 36/36/31 37/37/32 5/5/5
f 5/5/5 37/37/32 4/4/4
s 3
g Tail 1
f 38/38/33 39/39/34 40/40/35
f 38/38/33 40/40/35 41/41/36
f 42/42/37 40/40/35 39/39/34
f 42/42/37 43/43/38 40/40/35
g mmd_edge_scale
f 40/40/35 43/43/38 44/44/39
f 40/40/35 44/44/39 45/45/40
f 41/41/36 40/40/35 45/45/40
f 44/44/39 46/46/41 45/45/40
f 47/47/42 45/45/40 46/46/41
f 41/41/36 45/45/40 47/47/42
f 47/47/42 46/46/41 48/48/43
f 48/48/43 46/46/41 49/49/44
f 48/48/43 49/49/44 50/50/45
f 50/50/45 49/49/44 51/51/46
f 50/50/45 51/51/46 52/52/47
f 52/52/47 51/51/46 53/53/48
f 44/44/39 54/54/49 46/46/41
f 54/54/49 49/49/44 46/46/41
f 55/55/50 51/51/46 49/49/44
f 54/54/49 55/55/50 49/49/44
f 55/55/50 56/56/51 51/51/46
f 56/56/51 53/53/48 51/51/46
f 52/52/47 53/53/48 57/57/52
f 56/56/51 58/58/53 53/53/48
s 4
g Tail 1
f 59/59/54 60/60/26 61/61/25
g mmd_edge_scale
f 62/62/55 60/60/26 59/59/54
g Tail 1
f 59/59/54 61/61/25 63/63/33
g mmd_edge_scale
f 62/62/55 59/59/54 64/64/42
f 65/65/29 62/62/55 64/64/42
f 65/65/29 64/64/42 66/66/43
f 67/67/56 65/65/29 66/66/43
f 67/67/56 66/66/43 68/68/45
f 69/69/32 67/67/56 68/68/45
f 69/69/32 68/68/45 70/70/47
f 71/71/4 69/69/32 70/70/47
f 71/71/4 70/70/47 72/72/52
g Tail 3
f 73/73/48 71/71/4 72/72/52
f 73/73/48 74/74/1 71/71/4
s 5
f 75/75/1 76/76/57 77/77/24
f 75/75/1 77/77/24 78/78/2
g mmd_edge_scale
f 79/79/58 77/77/24 76/76/57
g Tail 1
f 80/80/11 81/81/10 82/82/59
f 80/80/11 82/82/59 83/83/60
g mmd_edge_scale
f 82/82/59 81/81/10 84/84/15
f 82/82/59 84/84/15 85/85/61
f 84/84/15 86/86/62 85/85/61
f 84/84/15 87/87/16 86/86/62
f 87/87/16 88/88/63 86/86/62
f 89/89/23 90/90/64 88/88/63
f 87/87/16 89/89/23 88/88/63
f 89/89/23 79/79/58 90/90/64
f 79/79/58 76/76/57 90/90/64
s 6
g Tail 1
f 91/91/65 92/92/66 93/93/37
g mmd_edge_scale
f 94/94/67 92/92/66 91/91/65
g Tail 1
f 91/91/65 93/93/37 95/95/60
g mmd_edge_scale
f 96/96/68 97/97/39 94/94/67
f 96/96/68 98/98/69 97/97/39
f 99/99/70 98/98/69 96/96/68
f 94/94/67 97/97/39 92/92/66
f 99/99/70 100/100/50 98/98/69
f 101/101/64 100/100/50 99/99/70
f 101/101/64 102/102/51 100/100/50
f 103/103/57 102/102/51 101/101/64
f 103/103/57 104/104/71 102/102/51
g Tail 3
f 105/105/48 104/104/71 103/103/57
f 105/105/48 103/103/57 106/106/1
